<svg xmlns="http://www.w3.org/2000/svg" viewBox="0 0 300 200">
    <!-- Définition des dégradés -->
    <defs>
        <linearGradient id="headGradient" x1="0%" y1="0%" x2="100%" y2="0%">
            <stop offset="0%" style="stop-color:#1a2a3a;stop-opacity:1" />
            <stop offset="100%" style="stop-color:#2a3a4a;stop-opacity:1" />
        </linearGradient>
        <linearGradient id="bodyGradient" x1="0%" y1="0%" x2="100%" y2="0%">
            <stop offset="0%" style="stop-color:#1a2a3a;stop-opacity:1" />
            <stop offset="100%" style="stop-color:#2a3a4a;stop-opacity:1" />
        </linearGradient>
    </defs>

    <!-- Corps principal en silhouette -->
    <path d="M50,100 
             L80,60 L120,40 L180,40 L220,60
             L250,90 L260,110
             L240,130 L200,140 L150,140 L100,130
             L70,110 L50,100"
          fill="url(#bodyGradient)" stroke="none"/>
    
    <!-- Nouvelle tête avec angles plus marqués -->
    <path d="M180,60 
             L160,45 L150,40 L130,45
             L120,55 L115,65
             L120,75 L130,80
             L150,85 L170,80
             L180,70 L180,60"
          fill="url(#headGradient)" stroke="none"/>
    
    <!-- Œil plus expressif -->
    <path d="M145,60 
             Q150,55 155,60
             Q150,65 145,60"
          fill="#ffffff" stroke="none"/>
    
    <!-- Défense -->
    <path d="M125,70 
             L120,75 L125,80"
          fill="#ffffff" stroke="none"/>

    <!-- Oreille pointue -->
    <path d="M165,45 
             L175,35 L180,45"
          fill="url(#headGradient)" stroke="none"/>
    
    <!-- Pattes en mouvement -->
    <path d="M100,140 L90,170" stroke="#1a2a3a" stroke-width="12"/>
    <path d="M140,140 L150,170" stroke="#1a2a3a" stroke-width="12"/>
    <path d="M180,140 L170,170" stroke="#1a2a3a" stroke-width="12"/>
    <path d="M220,140 L230,170" stroke="#1a2a3a" stroke-width="12"/>
    
    <!-- Queue -->
    <path d="M50,100 L40,90 L30,85" stroke="#1a2a3a" stroke-width="8"/>
</svg>